PathFileType	4	(X/Y/Z)	C:/Users/opensim2020/Desktop/walking_exp_matlab/subject06_walking14_straight_02.trc	
DataRate	CameraRate	NumFrames	NumMarkers	Units	OrigDataRate	OrigDataStartFrame	OrigNumFrames	
100.00	100.00	6	45	mm	100.00	1652	192	
Frame#	Time	LFHD			RFHD			LBHD			RBHD			C7			T10			CLAV			STRN			RBAK			LSHO			LUPA			LELB			LFRM			LWRA			LWRB			LFIN			RSHO			RUPA			RELB			RFRM			RWRA			RWRB			RFIN			LASI			RASI			LPSI			RPSI			LTHI			LKNE			LTIB			LANK			LHEE			LTOE			RTHI			RKNE			RTIB			RANK			RHEE			RTOE			*39			*40			*41			*42			*43			*44			
		X1	Y1	Z1	X2	Y2	Z2	X3	Y3	Z3	X4	Y4	Z4	X5	Y5	Z5	X6	Y6	Z6	X7	Y7	Z7	X8	Y8	Z8	X9	Y9	Z9	X10	Y10	Z10	X11	Y11	Z11	X12	Y12	Z12	X13	Y13	Z13	X14	Y14	Z14	X15	Y15	Z15	X16	Y16	Z16	X17	Y17	Z17	X18	Y18	Z18	X19	Y19	Z19	X20	Y20	Z20	X21	Y21	Z21	X22	Y22	Z22	X23	Y23	Z23	X24	Y24	Z24	X25	Y25	Z25	X26	Y26	Z26	X27	Y27	Z27	X28	Y28	Z28	X29	Y29	Z29	X30	Y30	Z30	X31	Y31	Z31	X32	Y32	Z32	X33	Y33	Z33	X34	Y34	Z34	X35	Y35	Z35	X36	Y36	Z36	X37	Y37	Z37	X38	Y38	Z38	X39	Y39	Z39	X40	Y40	Z40	X41	Y41	Z41	X42	Y42	Z42	X43	Y43	Z43	X44	Y44	Z44	X45	Y45	Z45	

73	0.720	-928.67426	227.29976	1665.18274	-1060.82739	223.96426	1655.81519	-931.96906	357.71423	1604.23730	-1060.80603	352.45923	1600.00378	-985.35730	348.63608	1448.21851	-993.81171	381.59485	1120.44873	-990.69452	236.13037	1374.48621	-987.24866	195.16103	1198.96680	-1061.51587	422.02029	1280.55701	-826.94177	285.92883	1404.49316	-751.10699	252.23369	1205.82263	-735.37061	228.42245	1095.87695	-713.86133	147.29492	969.27747	-757.81122	45.31772	892.16699	-719.63367	96.55563	861.30743	-717.14868	22.75550	809.71851	-1150.85986	286.85464	1404.28455	-1232.95715	340.41229	1206.73596	-1244.37085	341.40628	1084.76343	-1264.03503	344.31601	964.76221	-1242.79614	303.25699	816.62866	-1276.25366	362.51855	827.78101	-1282.27124	340.79370	745.91888	-894.80170	199.88863	959.22998	-1115.09644	207.96031	968.51251	-918.94073	358.60840	988.06982	-1087.09460	358.74585	987.82397	-845.32916	285.79315	647.61987	-868.39502	308.62854	484.49792	-885.42438	369.98398	234.21819	-935.52783	392.46780	64.84601	-980.91235	432.57361	52.68907	-938.08008	247.66727	35.09542	-1182.31604	179.87852	646.30792	-1159.86768	127.75067	531.41510	-1148.48755	185.33694	274.07495	-1101.96265	211.34988	90.35261	-1049.59302	243.27344	67.60952	-1125.68103	65.97280	42.69613	-989.96820	327.80896	1699.54065															 
74	0.730	-928.86609	217.09689	1664.18396	-1061.15796	213.73300	1654.81152	-932.27032	347.52750	1603.45374	-1061.22839	342.37277	1599.27966	-985.48682	338.74966	1447.39050	-993.84955	371.95450	1119.63403	-990.90363	226.46471	1373.53650	-987.12238	185.57890	1198.02661	-1061.31396	412.32339	1279.72913	-827.20258	276.02600	1403.89160	-751.31104	240.83022	1205.67261	-735.47314	215.46718	1096.01477	-714.54749	130.68777	971.76019	-758.95428	26.29891	898.55334	-721.12946	76.44234	865.54877	-718.80615	0.83606	816.79480	-1150.99976	277.27097	1403.32886	-1232.60046	333.18555	1206.38086	-1244.11877	335.41968	1084.47180	-1263.69641	339.94528	964.49719	-1242.53699	300.91489	815.78394	-1275.82349	359.99298	827.73352	-1281.78735	339.38663	745.50793	-894.27850	190.61308	958.07532	-1114.68091	197.95241	967.73553	-919.15613	349.36951	987.07324	-1087.36890	348.82068	986.91333	-845.78894	278.06952	646.72925	-868.85059	302.41049	483.73813	-885.66016	367.10721	234.16273	-935.75769	391.98312	65.07184	-981.11517	432.32364	53.12696	-938.16711	247.39944	34.97974	-1181.63550	171.10771	644.84027	-1158.91638	118.93414	529.91174	-1147.96912	164.87213	270.02142	-1102.01038	179.31993	84.78827	-1049.86523	209.97371	61.00723	-1126.28992	31.74299	43.14149	-990.38007	317.49765	1698.75781															 
75	0.740	-929.31787	206.88013	1663.15601	-1061.48950	203.50516	1653.64307	-932.59680	337.48694	1602.70471	-1061.55444	332.24756	1598.34143	-985.71545	329.03314	1446.46497	-993.99194	362.36200	1118.72754	-991.14929	216.60826	1372.52808	-987.07635	175.79442	1196.99463	-1061.11292	402.67407	1278.86121	-827.49719	266.08185	1403.20483	-751.60376	229.62624	1205.42236	-735.83789	202.78995	1096.12500	-715.22455	114.78629	974.28375	-760.33063	7.87370	904.92657	-722.79968	56.93257	869.99280	-720.56537	-20.42568	823.91827	-1151.22925	267.76566	1402.35449	-1232.57886	325.61118	1206.01575	-1243.87671	329.24252	1084.07739	-1263.46423	335.30737	964.17151	-1242.46729	297.96619	815.01123	-1275.59680	357.16690	827.67834	-1281.29834	337.83868	745.03387	-893.96283	181.23425	956.94043	-1114.40039	187.81903	966.69824	-919.45868	339.92499	986.03741	-1087.66907	338.76154	985.89575	-846.16125	270.54251	645.74274	-869.23450	296.21365	482.90442	-885.95313	364.25403	234.11266	-935.94263	391.56931	65.35054	-981.26147	432.12939	53.61485	-938.20917	247.24782	34.88298	-1180.86340	162.89198	642.87634	-1157.84216	110.92770	527.93469	-1147.76221	144.47879	266.20972	-1102.47021	147.47969	80.25318	-1050.17725	176.40263	55.14925	-1126.69031	-1.98217	44.29425	-990.77203	307.15112	1697.83203															 
76	0.750	-929.71393	196.61188	1661.90991	-1061.87317	193.29126	1652.36414	-932.98077	327.31622	1601.77991	-1062.28552	322.49435	1597.40149	-985.96405	319.10828	1445.30139	-994.20441	352.56580	1117.69775	-991.45868	206.86066	1371.27002	-987.07941	165.95580	1195.80066	-1060.99146	392.84406	1277.81189	-827.84753	256.20276	1402.43665	-751.96008	218.26982	1205.15076	-736.31006	190.39957	1096.04980	-716.22772	99.15218	976.70770	-761.73523	-9.95977	911.18146	-724.16772	37.81206	874.29559	-722.50104	-41.06337	831.10474	-1151.42627	258.16345	1401.20508	-1232.49060	318.03964	1205.53857	-1243.86670	323.00320	1083.68958	-1263.36890	330.27719	963.78314	-1242.57983	294.55267	814.16815	-1275.43140	353.71930	827.51642	-1281.02832	335.57959	744.55518	-893.73755	171.80542	955.63440	-1114.24927	177.52690	965.48737	-919.69690	330.35831	984.88269	-1088.00146	328.54276	984.78320	-846.41345	262.92239	644.64966	-869.56488	289.90567	482.05688	-886.03918	361.28281	234.00079	-936.03522	391.04514	65.55128	-981.34662	431.91568	54.07984	-938.32684	246.86693	34.59924	-1180.07617	155.07477	640.50293	-1156.96094	103.47867	525.45325	-1147.51672	124.36065	262.77032	-1103.23755	115.96998	76.81571	-1050.75708	144.16331	51.07128	-1126.85730	-34.98007	46.24184	-991.18268	296.86130	1696.76880															 
77	0.760	-930.21759	186.40282	1660.64807	-1062.39478	183.11481	1650.93408	-933.43018	317.23331	1600.69678	-1062.43799	311.95508	1596.12329	-986.25513	309.25168	1444.10437	-994.49847	342.76785	1116.45129	-991.77094	196.87093	1369.99194	-987.16278	156.01439	1194.49561	-1060.87976	383.05069	1276.62524	-828.27380	246.21349	1401.55664	-752.38983	207.03650	1204.68469	-736.87933	178.20737	1095.87085	-717.27728	83.77641	978.96027	-763.30170	-27.14433	917.30554	-726.44165	19.07472	878.69604	-724.48071	-61.06626	838.14270	-1151.67249	248.51851	1399.95691	-1232.41296	310.26984	1204.89026	-1243.78967	316.36795	1083.13062	-1263.37561	324.91309	963.31989	-1242.88306	290.81082	813.28278	-1275.37317	349.90079	827.29047	-1281.09009	332.59402	744.07410	-893.56494	162.27147	954.19391	-1114.16663	167.18481	964.08649	-920.02087	320.65073	983.63110	-1088.41235	318.20901	983.54694	-846.46014	255.37108	643.54736	-869.82965	283.45718	481.08078	-886.13165	358.30438	233.91563	-936.08527	390.58881	65.83487	-981.55804	432.23611	55.01135	-938.34619	246.70325	34.47216	-1179.46558	147.63803	637.91522	-1156.09937	96.53473	522.64868	-1147.14246	104.67625	259.83975	-1104.13501	85.37814	74.44598	-1051.71497	112.35359	47.90466	-1126.99524	-67.10315	49.14623	-991.72449	286.56238	1695.57996															 
78	0.770	-930.70197	176.12239	1659.20874	-1062.85815	172.89702	1649.39783	-933.92755	307.15942	1599.41492	-1062.77844	301.81110	1594.70361	-986.54443	299.28403	1442.64966	-994.78638	332.81784	1114.97314	-992.09406	186.93219	1368.54089	-987.25024	146.07278	1193.04834	-1060.81934	373.05588	1275.17529	-828.68451	236.28648	1400.52917	-752.86401	195.80905	1204.14490	-737.48407	166.20988	1095.48669	-718.43573	68.83933	981.18951	-764.89594	-43.86141	923.22308	-728.22211	1.15129	882.87103	-726.60657	-80.50211	845.05511	-1151.97156	238.79851	1398.55701	-1232.44019	302.46765	1204.16858	-1243.86023	309.54810	1082.42639	-1263.44409	319.36078	962.72797	-1242.98914	286.23914	812.19727	-1275.33801	345.58948	826.82245	-1280.89038	329.50110	743.39398	-893.48633	152.71999	952.66370	-1114.13342	156.76135	962.55920	-920.35425	310.92383	982.27783	-1088.75330	307.77817	982.14386	-846.41534	247.56918	642.43671	-870.02606	276.87372	479.99176	-886.00616	355.15234	233.71962	-936.08893	390.12021	66.10511	-981.46210	431.96219	55.52464	-938.38489	246.54245	34.35213	-1178.85718	140.36911	635.02142	-1154.85266	89.47893	519.48126	-1147.11951	85.54102	257.58658	-1105.27917	55.89266	73.19790	-1052.70605	81.84623	45.83230	-1127.29480	-97.95450	53.30102	-992.28076	276.32040	1694.20764															 
